:SAMPLES-PER-SECOND 30
:FULLY-SPECIFIED
:DEGREES
719
root  -2.13199 40.387 11.1774 176.073 1.58333 -178.865
RightUpLeg  1.94085 -3.44898 -0.18021
RightLeg  6.68807 6.26531 -1.56501
RightFoot  -3.27569 -0.0448019 0.310644
RightToes  -1.33073e-015 0 -3.6325e-017
Spine  -1.38372 -0.869214 -0.105364
Spine1  13.9767 -2.41072 4.90802
HEad  -5.06555 2.21388 -2.33284
LeftShoulder1  7.00002 -14.7833 -32.2589
LeftArm  34.8577 -14.6472 -51.4642
LeftForeArm  25.6059 -42.7179 -8.61704
LeftHand  -0.246645 0.021 5.37786
RightShoulder  6.6268 14.4725 30.8948
RightArm  13.0759 0.971704 47.7467
RightForeArm  -21.6461 38.4333 10.0823
RightHand  -0.24729 -0.0210522 -5.37781
LeftUpLeg  5.19619 12.3471 12.468
LeftLeg  4.93897 17.4104 -2.37494
LeftFoot  -0.613465 0.660542 -6.99233
LeftToes  5.09284e-011 3.02203e-011 3.83118e-011
720
root  -1.75564 40.3407 11.1463 175.99 1.1451 -178.372
RightUpLeg  2.18457 -3.64502 0.729033
RightLeg  6.69735 5.87796 -1.21211
RightFoot  -3.47536 -0.0121584 -0.18147
RightToes  -1.33073e-015 0 -3.6325e-017
Spine  -1.6521 -0.907073 0.551893
Spine1  14.3401 -2.38696 4.84115
HEad  -5.20079 2.20005 -2.00174
LeftShoulder1  6.9083 -14.668 -31.9971
LeftArm  35.1617 -14.0943 -51.0969
LeftForeArm  24.9471 -44.2922 -9.20186
LeftHand  -0.246645 0.021 5.37786
RightShoulder  6.51834 14.3571 30.5221
RightArm  13.5105 0.324534 47.0955
RightForeArm  -22.325 40.1118 10.6858
RightHand  -0.24729 -0.0210522 -5.37781
LeftUpLeg  4.65615 13.6506 13.742
LeftLeg  6.18929 15.5045 -1.84382
LeftFoot  -0.718518 0.710933 -7.59438
LeftToes  5.09284e-011 3.02203e-011 3.83118e-011
721
root  -1.49947 40.294 11.0777 176.315 0.350403 -178.144
RightUpLeg  1.98863 -4.40695 0.838431
RightLeg  6.86303 5.76865 -0.31733
RightFoot  -3.82763 0.0163758 -0.64351
RightToes  -1.33073e-015 0 -3.6325e-017
Spine  -2.9298 -1.24934 2.10364
Spine1  15.2923 -2.36771 3.53921
HEad  -5.35209 2.14638 -1.6886
LeftShoulder1  6.87811 -14.6177 -31.9363
LeftArm  35.1938 -13.4664 -50.7091
LeftForeArm  25.4924 -45.8061 -9.71199
LeftHand  -0.246645 0.021 5.37786
RightShoulder  6.48528 14.3235 30.4038
RightArm  14.0243 -0.351267 46.8319
RightForeArm  -23.3387 41.638 11.2839
RightHand  -0.24729 -0.0210522 -5.37781
LeftUpLeg  3.48624 14.7083 14.1187
LeftLeg  7.49047 13.7057 -0.970239
LeftFoot  -0.81828 0.766239 -8.25879
LeftToes  5.09284e-011 3.02203e-011 3.83118e-011
722
root  -1.12565 40.2151 11.0708 176.295 -0.15184 -177.556
RightUpLeg  2.00285 -4.46844 1.80738
RightLeg  7.07715 5.11222 0.193646
RightFoot  -4.14906 0.0503996 -1.24911
RightToes  -1.33073e-015 0 -3.6325e-017
Spine  -3.17556 -1.27367 2.98907
Spine1  15.6315 -2.27575 3.30291
HEad  -5.57559 1.88868 -1.49646
LeftShoulder1  6.87725 -14.6023 -31.9639
LeftArm  35.1257 -13.0051 -50.6522
LeftForeArm  26.4351 -47.0906 -10.1331
LeftHand  -0.246645 0.021 5.37786
RightShoulder  6.54175 14.3785 30.61
RightArm  14.3336 -1.11962 46.5882
RightForeArm  -24.4599 42.8486 11.7966
RightHand  -0.24729 -0.0210522 -5.37781
LeftUpLeg  2.43821 16.9919 15.3554
LeftLeg  9.29543 10.76 -0.167175
LeftFoot  -1.03335 0.808412 -8.88325
LeftToes  5.09284e-011 3.02203e-011 3.83118e-011
723
root  -0.640262 40.0985 11.1352 175.893 -0.143188 -176.638
RightUpLeg  2.12896 -3.77939 3.67071
RightLeg  7.515 4.12313 0.170149
RightFoot  -4.47528 0.0797272 -1.83442
RightToes  -1.33073e-015 0 -3.6325e-017
Spine  -2.20257 -0.887644 3.17058
Spine1  15.2098 -2.02348 4.23131
HEad  -5.89528 1.40566 -1.36724
LeftShoulder1  6.91288 -14.6164 -32.1315
LeftArm  35.1868 -12.7305 -50.8044
LeftForeArm  27.0607 -47.9977 -10.448
LeftHand  -0.246645 0.021 5.37786
RightShoulder  6.63509 14.4656 30.9559
RightArm  14.6754 -1.8205 46.2872
RightForeArm  -25.2789 43.5769 12.1224
RightHand  -0.24729 -0.0210522 -5.37781
LeftUpLeg  1.65523 20.1439 17.3753
LeftLeg  11.4501 7.19596 0.518668
LeftFoot  -1.43533 0.81975 -9.34636
LeftToes  5.09284e-011 3.02203e-011 3.83118e-011
724
root  -0.286846 39.9918 11.1823 175.788 -0.304398 -176.11
RightUpLeg  1.83682 -3.62332 4.70392
RightLeg  8.22677 3.64303 0.446111
RightFoot  -4.94279 0.0921621 -2.24668
RightToes  -1.33073e-015 0 -3.6325e-017
Spine  -1.94531 -0.633155 3.91056
Spine1  15.2013 -1.693 4.24966
HEad  -6.2722 0.890503 -1.24273
LeftShoulder1  6.96654 -14.6258 -32.4082
LeftArm  35.3016 -12.4416 -50.8164
LeftForeArm  27.863 -48.8281 -10.73
LeftHand  -0.246645 0.021 5.37786
RightShoulder  6.71579 14.5255 31.284
RightArm  15.2884 -2.10734 46.0684
RightForeArm  -26.1208 43.6247 12.1824
RightHand  -0.24729 -0.0210522 -5.37781
LeftUpLeg  0.588875 21.101 18.2565
LeftLeg  13.2072 5.74492 1.29546
LeftFoot  -1.80322 0.829672 -9.79838
LeftToes  5.09284e-011 3.02203e-011 3.83118e-011
725
root  -0.0853222 39.9279 11.2012 175.943 -0.666946 -176.065
RightUpLeg  1.35726 -4.07518 4.73881
RightLeg  8.86552 3.72285 1.06377
RightFoot  -5.38105 0.0970157 -2.56134
RightToes  -1.33073e-015 0 -3.6325e-017
Spine  -2.49089 -0.590573 5.22034
Spine1  15.7465 -1.33765 3.15663
HEad  -6.60288 0.557912 -1.17799
LeftShoulder1  6.99658 -14.5961 -32.6377
LeftArm  35.2733 -11.9604 -50.6702
LeftForeArm  29.1955 -49.8378 -11.0583
LeftHand  -0.246645 0.021 5.37786
RightShoulder  6.77985 14.5522 31.5863
RightArm  16.1975 -1.84174 45.8892
RightForeArm  -27.4533 43.0185 12.0048
RightHand  -0.24729 -0.0210522 -5.37781
LeftUpLeg  -0.537073 19.3281 17.9302
LeftLeg  14.3533 7.01349 2.19877
LeftFoot  -1.93655 0.854152 -10.2252
LeftToes  5.09284e-011 3.02203e-011 3.83118e-011
726
root  0.162972 39.8835 11.2561 175.79 -0.741699 -176.049
RightUpLeg  1.23041 -4.087 5.08661
RightLeg  9.28507 3.58139 1.23545
RightFoot  -5.61095 0.106387 -2.88261
RightToes  -1.33073e-015 0 -3.6325e-017
Spine  -2.25347 -0.386951 5.67258
Spine1  15.8598 -1.00744 2.88337
HEad  -6.77847 0.409411 -1.19991
LeftShoulder1  7.01207 -14.5659 -32.7883
LeftArm  34.8439 -11.2071 -50.5456
LeftForeArm  30.7046 -50.9419 -11.4307
LeftHand  -0.246645 0.021 5.37786
RightShoulder  6.83949 14.5769 31.8666
RightArm  17.371 -1.24677 45.586
RightForeArm  -28.7424 42.1033 11.7095
RightHand  -0.24729 -0.0210522 -5.37781
LeftUpLeg  -1.1683 17.0923 17.828
LeftLeg  15.4111 9.04828 3.11631
LeftFoot  -2.07874 0.812748 -9.86093
LeftToes  5.09284e-011 3.02203e-011 3.83118e-011
727
root  0.37058 39.8708 11.2944 175.7 -0.890503 -176.268
RightUpLeg  1.15041 -4.12572 5.1731
RightLeg  9.52806 3.42366 1.26705
RightFoot  -5.74734 0.117694 -3.20263
RightToes  -1.33073e-015 0 -3.6325e-017
Spine  -2.29445 -0.248751 5.89677
Spine1  16.1623 -0.74116 2.52493
HEad  -6.77332 0.261117 -1.19835
LeftShoulder1  7.05883 -14.6042 -32.9636
LeftArm  33.6434 -10.1627 -50.2384
LeftForeArm  32.3274 -52.1638 -11.8721
LeftHand  -0.246645 0.021 5.37786
RightShoulder  6.89814 14.6164 32.1089
RightArm  18.8059 -0.543798 45.3606
RightForeArm  -28.8025 41.2306 11.3858
RightHand  -0.24729 -0.0210522 -5.37781
LeftUpLeg  -1.83494 14.5227 17.261
LeftLeg  16.4454 11.0633 3.97418
LeftFoot  -2.72766 0.633323 -8.15806
LeftToes  5.09284e-011 3.02203e-011 3.83118e-011
728
root  0.537464 39.8664 11.3237 175.685 -1.03343 -176.496
RightUpLeg  1.04544 -4.16836 5.18613
RightLeg  9.6879 3.28062 1.28198
RightFoot  -5.8476 0.125548 -3.43876
RightToes  -1.33073e-015 0 -3.6325e-017
Spine  -2.42592 -0.125695 6.26762
Spine1  16.3982 -0.447253 1.97953
HEad  -6.65584 -0.00498418 -1.10083
LeftShoulder1  7.13641 -14.7053 -33.1719
LeftArm  31.6471 -8.82128 -49.7249
LeftForeArm  34.2286 -53.6339 -12.4436
LeftHand  -0.246645 0.021 5.37786
RightShoulder  6.94936 14.6452 32.3314
RightArm  20.4404 0.142962 45.2575
RightForeArm  -26.8759 40.5052 11.0373
RightHand  -0.24729 -0.0210522 -5.37781
LeftUpLeg  -2.53129 12.3185 16.5229
LeftLeg  17.3723 10.6992 4.04177
LeftFoot  -4.07734 0.443299 -6.60442
LeftToes  5.09284e-011 3.02203e-011 3.83118e-011
729
root  0.656526 39.8443 11.3528 175.753 -1.0974 -176.635
RightUpLeg  0.742415 -4.25774 5.18808
RightLeg  10.0762 3.2913 1.3841
RightFoot  -6.05564 0.124285 -3.57772
RightToes  -1.33073e-015 0 -3.6325e-017
Spine  -2.55809 0.023753 6.93496
Spine1  16.4794 -0.0893183 1.34607
HEad  -6.52637 -0.304877 -1.03297
LeftShoulder1  7.19448 -14.7859 -33.3153
LeftArm  29.3209 -7.43315 -49.1418
LeftForeArm  35.8118 -54.9459 -12.9983
LeftHand  -0.246645 0.021 5.37786
RightShoulder  6.96865 14.6199 32.4922
RightArm  21.921 0.822984 45.2635
RightForeArm  -22.7318 39.9532 10.6493
RightHand  -0.24729 -0.0210522 -5.37781
LeftUpLeg  -3.14221 10.571 15.7149
LeftLeg  17.9705 6.31402 2.60425
LeftFoot  -5.80066 0.380978 -7.21532
LeftToes  5.09284e-011 3.02203e-011 3.83118e-011
730
root  0.755698 39.7862 11.3884 175.71 -1.06871 -176.594
RightUpLeg  0.358442 -4.27392 5.39597
RightLeg  10.8472 3.30395 1.43649
RightFoot  -6.45755 0.113157 -3.67496
RightToes  -1.33073e-015 0 -3.6325e-017
Spine  -2.40514 0.197637 7.5952
Spine1  16.3739 0.216794 1.12863
HEad  -6.45408 -0.493621 -1.14043
LeftShoulder1  7.19896 -14.7768 -33.3592
LeftArm  27.0224 -6.29032 -48.5701
LeftForeArm  36.2909 -55.3906 -13.2033
LeftHand  -0.246645 0.021 5.37786
RightShoulder  6.92499 14.5278 32.4472
RightArm  22.7004 1.41893 45.3465
RightForeArm  -16.4995 39.7586 10.268
RightHand  -0.24729 -0.0210522 -5.37781
LeftUpLeg  -3.51242 9.15965 14.9742
LeftLeg  18.5401 -1.15747 -0.121703
LeftFoot  -7.46561 0.364251 -9.44423
LeftToes  5.09284e-011 3.02203e-011 3.83118e-011
731
root  0.952341 39.6996 11.461 174.957 -0.742386 -176
RightUpLeg  0.800182 -3.5868 6.64483
RightLeg  11.298 2.68522 0.970884
RightFoot  -6.69382 0.106919 -3.74708
RightToes  -1.33073e-015 0 -3.6325e-017
Spine  -0.731482 0.466503 7.67661
Spine1  15.4597 0.380964 2.06059
HEad  -6.44496 -0.544085 -1.35978
LeftShoulder1  7.1576 -14.6849 -33.3316
LeftArm  24.6752 -5.29954 -47.8867
LeftForeArm  35.9233 -55.0429 -13.044
LeftHand  -0.246645 0.021 5.37786
RightShoulder  6.82855 14.4036 32.1755
RightArm  22.557 1.70635 45.3548
RightForeArm  -9.21538 40.1132 9.98901
RightHand  -0.24729 -0.0210522 -5.37781
LeftUpLeg  -3.12764 8.54133 15.1054
LeftLeg  19.5596 -8.58338 -3.05916
LeftFoot  -8.92249 0.276919 -10.4469
LeftToes  5.09284e-011 3.02203e-011 3.83118e-011
